<svg width="681" height="253" viewBox="0 0 681 253" fill="none" xmlns="http://www.w3.org/2000/svg">
<path d="M127.858 249C125.525 249 123.542 248.183 121.908 246.55C120.275 244.917 119.458 242.817 119.458 240.25V198.25H9.2082C6.87487 198.25 4.89154 197.433 3.2582 195.8C1.62487 194.167 0.808203 192.067 0.808203 189.5V161.15C0.808203 159.517 1.1582 157.767 1.8582 155.9C2.5582 154.033 3.49154 152.283 4.6582 150.65L107.208 9.94999C110.242 5.98332 114.558 3.99998 120.158 3.99998H164.608C166.942 3.99998 168.925 4.81665 170.558 6.44999C172.192 8.08332 173.008 10.1833 173.008 12.75V151.7H204.158C206.958 151.7 209.058 152.517 210.458 154.15C212.092 155.783 212.908 157.767 212.908 160.1V189.5C212.908 192.067 212.092 194.167 210.458 195.8C208.825 197.433 206.842 198.25 204.508 198.25H173.008V240.25C173.008 242.817 172.192 244.917 170.558 246.55C168.925 248.183 166.942 249 164.608 249H127.858ZM55.0582 153.45H120.508V61.4L55.0582 153.45ZM595.095 249C592.761 249 590.778 248.183 589.145 246.55C587.511 244.917 586.695 242.817 586.695 240.25V198.25H476.445C474.111 198.25 472.128 197.433 470.495 195.8C468.861 194.167 468.045 192.067 468.045 189.5V161.15C468.045 159.517 468.395 157.767 469.095 155.9C469.795 154.033 470.728 152.283 471.895 150.65L574.445 9.94999C577.478 5.98332 581.795 3.99998 587.395 3.99998H631.845C634.178 3.99998 636.161 4.81665 637.795 6.44999C639.428 8.08332 640.245 10.1833 640.245 12.75V151.7H671.395C674.195 151.7 676.295 152.517 677.695 154.15C679.328 155.783 680.145 157.767 680.145 160.1V189.5C680.145 192.067 679.328 194.167 677.695 195.8C676.061 197.433 674.078 198.25 671.745 198.25H640.245V240.25C640.245 242.817 639.428 244.917 637.795 246.55C636.161 248.183 634.178 249 631.845 249H595.095ZM522.295 153.45H587.745V61.4L522.295 153.45Z" fill="#1C1F35"/>
<path d="M341.005 252.5C324.205 252.5 309.739 250.167 297.605 245.5C285.705 240.6 275.789 233.95 267.855 225.55C260.155 216.917 254.322 207 250.355 195.8C246.622 184.367 244.405 172.233 243.705 159.4C243.472 153.1 243.239 146.1 243.005 138.4C243.005 130.467 243.005 122.533 243.005 114.6C243.239 106.667 243.472 99.4333 243.705 92.9C244.172 80.0667 246.389 68.05 250.355 56.85C254.555 45.65 260.622 35.85 268.555 27.45C276.489 19.05 286.405 12.5167 298.305 7.85C310.439 2.94999 324.672 0.499987 341.005 0.499987C357.339 0.499987 371.455 2.94999 383.355 7.85C395.255 12.5167 405.172 19.05 413.105 27.45C421.039 35.85 426.989 45.65 430.955 56.85C435.155 68.05 437.605 80.0667 438.305 92.9C438.539 99.4333 438.655 106.667 438.655 114.6C438.889 122.533 438.889 130.467 438.655 138.4C438.655 146.1 438.539 153.1 438.305 159.4C437.605 172.233 435.272 184.367 431.305 195.8C427.339 207 421.389 216.917 413.455 225.55C405.755 233.95 395.839 240.6 383.705 245.5C371.805 250.167 357.572 252.5 341.005 252.5ZM341.005 207C354.539 207 364.455 202.567 370.755 193.7C377.055 184.833 380.439 172.817 380.905 157.65C381.139 150.883 381.255 143.883 381.255 136.65C381.489 129.417 381.489 122.183 381.255 114.95C381.255 107.717 381.139 100.95 380.905 94.65C380.439 80.1833 377.055 68.4 370.755 59.3C364.455 50.2 354.539 45.5333 341.005 45.3C327.239 45.5333 317.205 50.2 310.905 59.3C304.839 68.4 301.572 80.1833 301.105 94.65C300.872 100.95 300.639 107.717 300.405 114.95C300.405 122.183 300.405 129.417 300.405 136.65C300.639 143.883 300.872 150.883 301.105 157.65C301.572 172.817 304.955 184.833 311.255 193.7C317.555 202.567 327.472 207 341.005 207Z" fill="#FFB82B"/>
</svg>
