<svg width="22" height="20" viewBox="0 0 22 20" fill="none" xmlns="http://www.w3.org/2000/svg">
<path fill-rule="evenodd" clip-rule="evenodd" d="M21.4055 10.0578C21.4055 4.74704 16.8082 0.440918 11.1383 0.440918C5.46842 0.440918 0.871094 4.74704 0.871094 10.0578C0.871094 14.8576 4.62504 18.8362 9.53405 19.5583V12.8385H6.92646V10.0578H9.53405V7.93907C9.53405 5.52927 11.0673 4.19708 13.4122 4.19708C14.5357 4.19708 15.7109 4.38512 15.7109 4.38512V6.75199H14.4156C13.1409 6.75199 12.7421 7.49301 12.7421 8.25463V10.0578H15.5894L15.1347 12.8385H12.7426V19.5592C17.6516 18.8375 21.4055 14.8589 21.4055 10.0578V10.0578Z" fill="white"/>
</svg>
