<svg width="20" height="20" viewBox="0 0 20 20" fill="none" xmlns="http://www.w3.org/2000/svg">
<path d="M18.4395 0.291016H2.23345C1.34792 0.291016 0.574219 0.928181 0.574219 1.80331V18.0454C0.574219 18.9253 1.34792 19.7094 2.23345 19.7094H18.4348C19.3251 19.7094 19.9926 18.9201 19.9926 18.0454V1.80331C19.9978 0.928181 19.3251 0.291016 18.4395 0.291016ZM6.59348 16.4772H3.81162V7.82777H6.59348V16.4772ZM5.29878 6.51269H5.27884C4.38854 6.51269 3.81206 5.84996 3.81206 5.02034C3.81206 4.17555 4.40371 3.52842 5.31395 3.52842C6.22418 3.52842 6.78116 4.17079 6.8011 5.02034C6.80066 5.84996 6.22418 6.51269 5.29878 6.51269ZM16.7604 16.4772H13.9785V11.7478C13.9785 10.6148 13.5737 9.84069 12.5672 9.84069C11.7983 9.84069 11.3432 10.3608 11.1408 10.8675C11.0649 11.0496 11.0445 11.2975 11.0445 11.5506V16.4772H8.26268V7.82777H11.0445V9.03145C11.4494 8.45496 12.0818 7.62535 13.5533 7.62535C15.3794 7.62535 16.7608 8.82903 16.7608 11.4241L16.7604 16.4772Z" fill="white"/>
</svg>
